HIERARCHY
ROOT Hips
{
	OFFSET -0.001795 -0.223333 0.028219
	CHANNELS 6 Xposition Yposition Zposition Zrotation Yrotation Xrotation 
	JOINT LeftUpLeg
	{
		OFFSET 0.069520 -0.091406 -0.006815
		CHANNELS 3 Zrotation Yrotation Xrotation
		JOINT LeftLeg
		{
			OFFSET 0.034277 -0.375199 -0.004496
			CHANNELS 3 Zrotation Yrotation Xrotation
			JOINT LeftFoot
			{
				OFFSET -0.013596 -0.397961 -0.043693
				CHANNELS 3 Zrotation Yrotation Xrotation
				JOINT LeftToe
				{
					OFFSET 0.026358 -0.055791 0.119288
					CHANNELS 3 Zrotation Yrotation Xrotation
					End Site
					{
						OFFSET 0.000000 0.000000 0.000000
					}
				}
			}
		}
	}
	JOINT RightUpLeg
	{
		OFFSET -0.067670 -0.090522 -0.004320
		CHANNELS 3 Zrotation Yrotation Xrotation
		JOINT RightLeg
		{
			OFFSET -0.038290 -0.382569 -0.008850
			CHANNELS 3 Zrotation Yrotation Xrotation
			JOINT RightFoot
			{
				OFFSET 0.015774 -0.398415 -0.042312
				CHANNELS 3 Zrotation Yrotation Xrotation
				JOINT RightToe
				{
					OFFSET -0.025372 -0.048144 0.123348
					CHANNELS 3 Zrotation Yrotation Xrotation
					End Site
					{
						OFFSET 0.000000 0.000000 0.000000
					}
				}
			}
		}
	}
	JOINT Spine
	{
		OFFSET -0.002533 0.108963 -0.026696
		CHANNELS 3 Zrotation Yrotation Xrotation
		JOINT Spine1
		{
			OFFSET 0.005487 0.135180 0.001092
			CHANNELS 3 Zrotation Yrotation Xrotation
			JOINT Spine2
			{
				OFFSET 0.001457 0.052922 0.025425
				CHANNELS 3 Zrotation Yrotation Xrotation
				JOINT Neck
				{
					OFFSET -0.002778 0.213870 -0.042857
					CHANNELS 3 Zrotation Yrotation Xrotation
					JOINT Head
					{
						OFFSET 0.005152 0.064970 0.051349
						CHANNELS 3 Zrotation Yrotation Xrotation
						End Site
						{
							OFFSET 0.000000 0.000000 0.000000
						}
					}
				}
				JOINT LeftShoulder
				{
					OFFSET 0.078845 0.121749 -0.034090
					CHANNELS 3 Zrotation Yrotation Xrotation
					JOINT LeftArm
					{
						OFFSET 0.090977 0.030469 -0.008868
						CHANNELS 3 Zrotation Yrotation Xrotation
						JOINT LeftForeArm
						{
							OFFSET 0.259612 -0.012772 -0.027456
							CHANNELS 3 Zrotation Yrotation Xrotation
							JOINT LeftHand
							{
								OFFSET 0.249234 0.008986 -0.001171
								CHANNELS 3 Zrotation Yrotation Xrotation
								End Site
								{
									OFFSET 0.000000 0.000000 0.000000
								}
							}
						}
					}
				}
				JOINT RightShoulder
				{
					OFFSET -0.081759 0.118833 -0.038615
					CHANNELS 3 Zrotation Yrotation Xrotation
					JOINT RightArm
					{
						OFFSET -0.096012 0.032551 -0.009143
						CHANNELS 3 Zrotation Yrotation Xrotation
						JOINT RightForeArm
						{
							OFFSET -0.253742 -0.013329 -0.021401
							CHANNELS 3 Zrotation Yrotation Xrotation
							JOINT RightHand
							{
								OFFSET -0.255298 0.007772 -0.005559
								CHANNELS 3 Zrotation Yrotation Xrotation
								End Site
								{
									OFFSET 0.000000 0.000000 0.000000
								}
							}
						}
					}
				}
			}
		}
	}
}
MOTION
Frames: 18
Frame Time: 0.050000
0.000000 0.956828 0.000000 2.576694 2.824085 1.788753 6.200336 -0.486057 -9.079296 -0.193264 -0.922632 22.913366 -0.016640 2.574179 5.709542 0.000000 0.000000 0.000000 -2.681495 0.537058 -6.334714 5.209716 -0.738590 13.027288 -5.515902 -14.509819 6.260479 0.000000 0.000000 0.000000 -0.335414 -0.302679 8.021725 1.470830 0.391988 -26.516454 2.445601 5.733468 28.803417 -1.757121 3.746541 -22.942312 0.000000 0.000000 0.000000 -27.559011 4.017682 -7.209149 -49.861280 -0.794377 -7.171488 -8.989164 -28.473847 3.333604 0.000000 0.000000 0.000000 17.924619 4.270037 3.201065 55.294172 10.139066 -3.531708 2.432630 25.659439 1.966146 0.000000 0.000000 0.000000 
0.005430 0.957127 0.002771 2.483114 0.017909 2.189916 6.420508 -0.419618 -8.777908 -0.585348 -0.602616 22.654126 0.028456 1.365264 2.936382 0.000000 0.000000 0.000000 -3.422754 0.642976 -7.874966 5.991987 -0.828381 14.531160 -4.905762 -13.212034 5.253526 0.000000 0.000000 0.000000 -0.539697 -0.241985 7.134955 1.837305 0.257341 -26.030252 2.465282 7.378235 29.131791 -2.980713 4.485540 -23.002615 0.000000 0.000000 0.000000 -26.197339 5.368021 -7.646206 -52.339136 -1.233654 -7.483469 -8.501539 -29.202224 3.345165 0.000000 0.000000 0.000000 17.604100 6.295345 4.235374 56.132882 10.127448 -3.530434 0.801443 25.798486 1.624795 0.000000 0.000000 0.000000 
0.011711 0.955885 0.004613 2.417037 -1.456250 2.443492 5.422350 -0.421427 -7.838933 1.329039 -1.043288 20.908535 -0.934744 -1.138579 1.813887 0.000000 0.000000 0.000000 -4.342273 0.660614 -8.453039 6.538334 -0.896274 14.953819 -4.339816 -12.104468 5.424087 0.000000 0.000000 0.000000 -0.273906 -0.252442 6.989624 1.988254 0.221341 -26.358030 1.791065 7.323374 29.974260 -3.085437 4.464118 -25.178447 0.000000 0.000000 0.000000 -26.485931 5.396126 -7.348515 -52.243140 -2.365232 -7.150304 -9.159786 -28.091669 3.472492 0.000000 0.000000 0.000000 17.141759 6.983908 4.343249 56.097051 9.603595 -3.815497 1.387218 27.005240 1.819345 0.000000 0.000000 0.000000 
0.019414 0.955434 0.004808 2.259708 -3.595539 2.572361 4.818082 -0.401183 -7.215983 1.703864 -1.016377 20.244265 -0.587506 -1.218334 0.107306 0.000000 0.000000 0.000000 -4.531296 0.748448 -9.530430 7.094786 -0.941407 16.584758 -4.430373 -12.233184 4.717233 0.000000 0.000000 0.000000 -0.991532 -0.189460 6.998353 3.087225 -0.039616 -26.375276 1.741051 7.056843 30.284005 -3.791070 4.623486 -25.311152 0.000000 0.000000 0.000000 -27.831157 5.981082 -7.423473 -52.003013 -3.179807 -6.903607 -9.040906 -28.462564 3.632204 0.000000 0.000000 0.000000 16.912978 9.018433 4.996490 55.767082 10.042094 -3.588141 0.713132 26.905698 1.569700 0.000000 0.000000 0.000000 
0.028314 0.954829 0.003109 1.904414 -5.224342 2.681092 4.171013 -0.405468 -6.914771 1.390362 -0.796301 18.597847 -0.121412 -0.471354 -0.504530 0.000000 0.000000 0.000000 -4.889621 0.849173 -10.968020 6.813320 -0.790666 18.365319 -3.843928 -11.051657 4.729601 0.000000 0.000000 0.000000 -1.044958 -0.192513 7.499490 3.267455 -0.137213 -25.779793 1.538237 6.336439 29.961747 -4.039729 4.480855 -26.733845 0.000000 0.000000 0.000000 -27.847061 4.536246 -5.790616 -52.142897 -4.269814 -6.634557 -9.369025 -28.529196 3.848872 0.000000 0.000000 0.000000 17.503311 9.138810 4.675834 54.612909 10.129289 -3.501908 1.264336 27.522448 1.662579 0.000000 0.000000 0.000000 
0.038432 0.954449 -0.000528 1.544615 -7.529170 3.103905 4.137656 -0.406990 -7.340281 0.618030 -0.460974 18.152879 0.708560 1.031625 -1.422838 0.000000 0.000000 0.000000 -4.897376 1.018522 -12.819461 6.735087 -0.617388 20.333749 -3.222256 -9.842931 4.771593 0.000000 0.000000 0.000000 -1.235710 -0.172720 7.850989 3.919609 -0.343546 -25.251977 1.143981 5.008743 29.561603 -3.793667 3.880843 -26.985210 0.000000 0.000000 0.000000 -28.837074 3.869003 -4.426115 -51.073431 -5.286945 -6.347455 -10.726269 -29.039063 4.451101 0.000000 0.000000 0.000000 17.355924 10.912521 4.884064 54.205619 10.226709 -3.322022 0.869851 28.356023 1.489809 0.000000 0.000000 0.000000 
0.049356 0.954220 -0.006098 1.161352 -10.448359 3.194526 3.639830 -0.435280 -7.876542 -0.125008 -0.112317 17.714589 1.707503 3.274946 -1.544732 0.000000 0.000000 0.000000 -5.154328 1.194026 -14.596172 6.618900 -0.353700 22.080699 -2.892057 -9.448296 5.214086 0.000000 0.000000 0.000000 -1.447686 -0.154057 9.071846 4.124228 -0.461841 -24.742730 1.346101 4.465127 29.020858 -3.721945 3.459535 -27.702610 0.000000 0.000000 0.000000 -29.296620 2.912823 -2.884274 -50.224181 -7.010636 -5.803909 -11.008691 -29.207595 4.684335 0.000000 0.000000 0.000000 17.093646 11.541597 4.576610 53.902739 11.207370 -2.749225 1.163098 28.566782 1.446064 0.000000 0.000000 0.000000 
0.060811 0.954320 -0.013412 0.571910 -13.572729 3.566897 3.526712 -0.447694 -8.795225 -0.703103 0.207763 17.641493 2.685885 5.440855 -2.015437 0.000000 0.000000 0.000000 -4.904932 1.418183 -16.138783 6.077294 0.028350 22.532708 -2.534002 -8.903538 5.286755 0.000000 0.000000 0.000000 -1.385475 -0.144803 9.997668 4.470332 -0.646837 -23.937493 1.135736 3.554241 28.281807 -3.181539 2.693905 -27.555015 0.000000 0.000000 0.000000 -29.825102 2.134737 -1.261997 -48.566462 -8.693271 -5.283282 -11.340343 -29.723132 4.980031 0.000000 0.000000 0.000000 17.007972 12.869041 4.490889 53.620765 11.624425 -2.354222 0.944294 29.688700 1.278179 0.000000 0.000000 0.000000 
0.072105 0.955500 -0.021995 0.128837 -16.913041 4.005839 3.449882 -0.449947 -9.942665 -1.631758 0.654738 17.544385 3.663639 7.767545 -1.470426 0.000000 0.000000 0.000000 -4.750238 1.657224 -17.554729 6.028042 0.262901 22.422779 -2.523883 -9.461027 6.120544 0.000000 0.000000 0.000000 -1.429912 -0.107080 10.910021 4.897798 -0.826188 -23.438452 1.213612 3.348148 27.692449 -2.420215 1.914666 -27.732907 0.000000 0.000000 0.000000 -30.058849 1.652136 -0.029126 -47.428549 -10.294528 -4.823396 -11.342405 -30.145860 5.144678 0.000000 0.000000 0.000000 16.801156 13.051002 3.967078 53.692565 11.764553 -2.141541 1.200206 30.286278 1.212450 0.000000 0.000000 0.000000 
0.083061 0.956386 -0.031538 -0.538581 -20.484818 4.711791 3.369886 -0.433789 -11.423662 -1.969344 0.971857 17.787572 4.782899 10.302029 -1.118632 0.000000 0.000000 0.000000 -4.381612 1.972027 -19.123185 5.772586 0.517850 21.892042 -2.522977 -10.053213 6.843711 0.000000 0.000000 0.000000 -1.273418 -0.073726 12.081103 5.148641 -0.938153 -23.228058 1.423578 3.009401 27.210366 -1.872051 1.214381 -27.281031 0.000000 0.000000 0.000000 -29.750800 1.090817 1.346144 -46.498246 -11.831261 -4.419501 -11.875585 -31.046793 5.559151 0.000000 0.000000 0.000000 15.981025 13.369555 3.491257 54.038881 11.889617 -1.983730 1.728482 31.524685 1.198292 0.000000 0.000000 0.000000 
0.093513 0.957560 -0.041297 -0.879280 -24.168626 5.202842 3.460365 -0.351128 -12.596223 -2.325670 1.262995 17.404404 5.668672 12.117240 0.483476 0.000000 0.000000 0.000000 -4.093482 2.203714 -19.880037 5.852123 0.647586 21.011438 -2.825963 -11.481985 8.053984 0.000000 0.000000 0.000000 -1.290717 0.001677 12.949287 5.034750 -1.027753 -22.480509 1.472545 2.976724 26.629483 -2.045915 0.975969 -27.120258 0.000000 0.000000 0.000000 -29.314242 0.864156 2.351220 -45.924018 -13.489765 -3.961108 -10.999094 -32.508546 5.706106 0.000000 0.000000 0.000000 15.959995 13.395927 2.892842 54.427668 12.128405 -1.741946 2.069688 32.293929 1.109216 0.000000 0.000000 0.000000 
0.103523 0.957826 -0.050756 -1.237611 -27.644089 5.599097 3.880032 -0.170232 -13.977309 -2.662669 1.615414 17.747005 6.556788 13.774675 1.473964 0.000000 0.000000 0.000000 -3.504545 2.370672 -20.036592 5.767741 0.722963 19.551766 -3.287905 -13.058525 9.051730 0.000000 0.000000 0.000000 -1.420786 0.136759 14.412581 5.156694 -1.097118 -22.455084 1.452633 2.335110 26.371666 -2.399992 0.759023 -25.984536 0.000000 0.000000 0.000000 -29.225810 0.606218 3.545960 -45.249032 -15.109230 -3.613214 -9.684834 -33.764424 5.664669 0.000000 0.000000 0.000000 16.229754 13.483983 2.179617 54.079006 12.098774 -1.581938 3.623708 32.852809 1.291919 0.000000 0.000000 0.000000 
0.113319 0.958605 -0.059327 -1.598445 -31.422313 6.099310 4.148927 0.053349 -15.165372 -3.232728 2.064910 17.846206 7.247926 14.726396 3.125213 0.000000 0.000000 0.000000 -3.011462 2.534968 -20.205399 5.400303 0.818575 18.004395 -3.713836 -14.531061 10.052305 0.000000 0.000000 0.000000 -1.672126 0.299900 15.210300 5.250095 -1.201313 -22.053579 1.631186 2.189176 26.308058 -2.970294 0.735890 -25.566126 0.000000 0.000000 0.000000 -29.398952 0.274763 4.707644 -44.473168 -16.925057 -3.211860 -8.469446 -34.757859 5.546565 0.000000 0.000000 0.000000 16.883036 14.229502 1.768451 53.320810 12.081565 -1.334710 3.925913 33.341549 1.146993 0.000000 0.000000 0.000000 
0.122938 0.958639 -0.066994 -1.855032 -34.261039 6.349060 4.423209 0.306251 -16.436243 -4.044307 2.618867 18.272946 8.082756 16.070505 3.781595 0.000000 0.000000 0.000000 -2.630942 2.580622 -19.946438 5.300616 0.822182 16.712234 -4.597617 -16.260997 10.263680 0.000000 0.000000 0.000000 -2.030511 0.513193 16.282930 5.506532 -1.247972 -22.313810 1.732373 1.690506 26.883873 -3.308387 0.601716 -24.497578 0.000000 0.000000 0.000000 -29.793181 -0.025473 5.869761 -43.584873 -18.408240 -3.028916 -6.740139 -35.538220 5.197999 0.000000 0.000000 0.000000 17.111172 14.306274 1.132005 52.452540 11.764611 -1.312704 5.205530 33.521999 1.279727 0.000000 0.000000 0.000000 
0.132386 0.959346 -0.073777 -1.856113 -37.063136 6.520621 4.588811 0.580773 -17.648308 -4.695418 3.224144 19.090585 8.342700 15.967345 5.303814 0.000000 0.000000 0.000000 -2.483044 2.640365 -19.892940 5.028815 0.904413 16.095040 -5.073497 -17.259255 10.560108 0.000000 0.000000 0.000000 -1.806512 0.618870 17.092621 5.523203 -1.347597 -21.766237 1.425147 1.655110 26.643896 -3.785173 0.665783 -23.867155 0.000000 0.000000 0.000000 -30.641493 -0.452060 6.965302 -42.202531 -19.825952 -2.824811 -5.184567 -35.959029 4.722705 0.000000 0.000000 0.000000 17.860567 14.805017 0.708983 51.525957 11.291095 -1.204411 5.579541 33.668192 1.215583 0.000000 0.000000 0.000000 
0.141427 0.959133 -0.080081 -1.720295 -38.796822 6.629821 4.884840 0.945626 -19.482897 -5.146815 3.878034 20.755515 8.477421 16.028285 5.287011 0.000000 0.000000 0.000000 -2.620613 2.720614 -20.153642 5.448614 0.886995 15.836762 -6.367236 -19.435869 10.904546 0.000000 0.000000 0.000000 -2.003878 0.828218 18.169553 5.597645 -1.360306 -21.907239 1.485281 1.026379 27.342456 -4.115087 0.641412 -22.884339 0.000000 0.000000 0.000000 -31.003731 -1.337685 8.374749 -41.447282 -21.829089 -2.450160 -3.371617 -36.140042 4.142744 0.000000 0.000000 0.000000 18.181260 15.237060 0.341873 50.313080 11.359089 -0.958789 6.103344 33.807835 1.194928 0.000000 0.000000 0.000000 
0.149815 0.959223 -0.085762 -1.725268 -40.363650 6.754306 5.243744 1.351194 -21.019803 -5.279882 4.402394 22.246732 7.973029 14.918766 5.208671 0.000000 0.000000 0.000000 -2.427790 2.805891 -20.339999 5.468312 0.926298 15.664097 -7.055565 -20.679949 11.438121 0.000000 0.000000 0.000000 -1.816853 0.938933 18.970172 5.491192 -1.460388 -21.048106 1.395398 0.800022 26.966816 -4.283637 0.644728 -22.032618 0.000000 0.000000 0.000000 -31.683499 -2.151122 9.540376 -40.320018 -23.202710 -2.226737 -2.340335 -36.264699 3.746661 0.000000 0.000000 0.000000 18.817722 16.284679 0.376812 49.152216 10.893323 -0.813459 5.822037 33.567514 1.028163 0.000000 0.000000 0.000000 
0.157012 0.958609 -0.090360 -1.633463 -41.317308 6.956714 5.811490 1.947432 -23.251983 -5.781222 5.214228 24.377742 7.327673 13.680364 4.616589 0.000000 0.000000 0.000000 -2.573425 2.877533 -20.613755 6.410736 0.880345 15.850488 -8.262785 -22.301965 11.067000 0.000000 0.000000 0.000000 -1.954309 1.091389 19.634331 5.457630 -1.483274 -20.879823 1.682798 0.783958 27.526610 -4.572768 0.771025 -21.534792 0.000000 0.000000 0.000000 -32.104776 -3.097073 10.622291 -39.921565 -25.430474 -1.693259 -0.687148 -35.828116 3.122317 0.000000 0.000000 0.000000 19.198151 16.688553 0.302529 47.699004 11.075990 -0.547382 6.386365 33.532697 1.132936 0.000000 0.000000 0.000000 
